<?xml version="1.0" encoding="UTF-8"?>
<svg width="24px" height="24px" viewBox="0 0 24 24" version="1.1" xmlns="http://www.w3.org/2000/svg" xmlns:xlink="http://www.w3.org/1999/xlink">
    <!-- Generator: Sketch 52.6 (67491) - http://www.bohemiancoding.com/sketch -->
    <title>icon_phone</title>
    <desc>Created with Sketch.</desc>
    <g id="icon_phone" stroke="none" stroke-width="1" fill="none" fill-rule="evenodd">
        <g id="分组-2" transform="translate(4.000000, 0.800000)" fill="#BBBBBB" fill-rule="nonzero">
            <path d="M2,0.75 C1.30964406,0.75 0.75,1.30964406 0.75,2 L0.75,20.4 C0.75,21.0903559 1.30964406,21.65 2,21.65 L14,21.65 C14.6903559,21.65 15.25,21.0903559 15.25,20.4 L15.25,2 C15.25,1.30964406 14.6903559,0.75 14,0.75 L2,0.75 Z M2,-0.75 L14,-0.75 C15.5187831,-0.75 16.75,0.481216938 16.75,2 L16.75,20.4 C16.75,21.9187831 15.5187831,23.15 14,23.15 L2,23.15 C0.481216938,23.15 -0.75,21.9187831 -0.75,20.4 L-0.75,2 C-0.75,0.481216938 0.481216938,-0.75 2,-0.75 Z" id="矩形"></path>
            <circle id="椭圆形" cx="8" cy="19.2" r="1.6"></circle>
            <path d="M4,3.15 C3.58578644,3.15 3.25,2.81421356 3.25,2.4 C3.25,1.98578644 3.58578644,1.65 4,1.65 L12,1.65 C12.4142136,1.65 12.75,1.98578644 12.75,2.4 C12.75,2.81421356 12.4142136,3.15 12,3.15 L4,3.15 Z" id="直线"></path>
        </g>
    </g>
</svg>