<?xml version="1.0" encoding="UTF-8"?>
<svg width="24px" height="24px" viewBox="0 0 24 24" version="1.1" xmlns="http://www.w3.org/2000/svg" xmlns:xlink="http://www.w3.org/1999/xlink">
    <!-- Generator: Sketch 52.6 (67491) - http://www.bohemiancoding.com/sketch -->
    <title>icon_close_gray</title>
    <desc>Created with Sketch.</desc>
    <g id="icon_close_gray" stroke="none" stroke-width="1" fill="none" fill-rule="evenodd">
        <g id="Group" transform="translate(4.000000, 4.000000)" fill="#BBBBBB" fill-rule="nonzero">
            <path d="M-0.0728024185,0.987857753 C-0.365695637,0.694964534 -0.365695637,0.2200908 -0.0728024185,-0.0728024185 C0.2200908,-0.365695637 0.694964534,-0.365695637 0.987857753,-0.0728024185 L16.0728024,15.0121422 C16.3656956,15.3050355 16.3656956,15.7799092 16.0728024,16.0728024 C15.7799092,16.3656956 15.3050355,16.3656956 15.0121422,16.0728024 L-0.0728024185,0.987857753 Z" id="Line-3"></path>
            <path d="M15.0121422,-0.0728024185 C15.3050355,-0.365695637 15.7799092,-0.365695637 16.0728024,-0.0728024185 C16.3656956,0.2200908 16.3656956,0.694964534 16.0728024,0.987857753 L0.987857753,16.0728024 C0.694964534,16.3656956 0.2200908,16.3656956 -0.0728024185,16.0728024 C-0.365695637,15.7799092 -0.365695637,15.3050355 -0.0728024185,15.0121422 L15.0121422,-0.0728024185 Z" id="Line-3"></path>
        </g>
    </g>
</svg>