<?xml version="1.0" encoding="UTF-8"?>
<svg width="24px" height="24px" viewBox="0 0 24 24" version="1.1" xmlns="http://www.w3.org/2000/svg" xmlns:xlink="http://www.w3.org/1999/xlink">
    <!-- Generator: Sketch 52.6 (67491) - http://www.bohemiancoding.com/sketch -->
    <title>icon_sjsc</title>
    <desc>Created with Sketch.</desc>
    <g id="icon_sjsc" stroke="none" stroke-width="1" fill="none" fill-rule="evenodd">
        <g id="分组-2" transform="translate(2.000000, 1.000000)" fill="#333333" fill-rule="nonzero">
            <path d="M15,8.75 C14.5857864,8.75 14.25,8.41421356 14.25,8 C14.25,7.58578644 14.5857864,7.25 15,7.25 L16.6666667,7.25 C18.8867532,7.25 20.75,8.70333254 20.75,10.6 L20.75,18.4 C20.75,20.2966675 18.8867532,21.75 16.6666667,21.75 L3.33333333,21.75 C1.11324685,21.75 -0.75,20.2966675 -0.75,18.4 L-0.75,10.6 C-0.75,8.70333254 1.11324685,7.25 3.33333333,7.25 L5,7.25 C5.41421356,7.25 5.75,7.58578644 5.75,8 C5.75,8.41421356 5.41421356,8.75 5,8.75 L3.33333333,8.75 C1.87152149,8.75 0.75,9.62478676 0.75,10.6 L0.75,18.4 C0.75,19.3752132 1.87152149,20.25 3.33333333,20.25 L16.6666667,20.25 C18.1284785,20.25 19.25,19.3752132 19.25,18.4 L19.25,10.6 C19.25,9.62478676 18.1284785,8.75 16.6666667,8.75 L15,8.75 Z" id="路径"></path>
            <g id="分组" transform="translate(6.000000, 0.000000)">
                <path d="M3.26522882,1 C3.26522882,0.585786438 3.60101525,0.25 4.01522882,0.25 C4.42944238,0.25 4.76522882,0.585786438 4.76522882,1 L4.76522882,15 C4.76522882,15.4142136 4.42944238,15.75 4.01522882,15.75 C3.60101525,15.75 3.26522882,15.4142136 3.26522882,15 L3.26522882,1 Z" id="直线"></path>
                <path d="M3.07829352,2.61053831 L6.55330688,6.12083189 C6.84471709,6.41520066 6.8423187,6.89006833 6.54794994,7.18147854 C6.25358118,7.47288874 5.7787135,7.47049036 5.4873033,7.1761216 L1.4873033,3.13551142 C1.19693326,2.84219339 1.19812725,2.36938424 1.489975,2.07753648 L5.489975,-1.92246352 C5.78286822,-2.21535674 6.25774196,-2.21535674 6.55063517,-1.92246352 C6.84352839,-1.6295703 6.84352839,-1.15469656 6.55063517,-0.861803344 L3.07829352,2.61053831 Z" id="Line-2" transform="translate(4.020305, 2.628172) scale(-1, 1) rotate(90.000000) translate(-4.020305, -2.628172) "></path>
            </g>
        </g>
    </g>
</svg>