<?xml version="1.0" encoding="UTF-8"?>
<svg width="24px" height="24px" viewBox="0 0 24 24" version="1.1" xmlns="http://www.w3.org/2000/svg" xmlns:xlink="http://www.w3.org/1999/xlink">
    <!-- Generator: Sketch 52.6 (67491) - http://www.bohemiancoding.com/sketch -->
    <title>icon_delete</title>
    <desc>Created with Sketch.</desc>
    <g id="icon_delete" stroke="none" stroke-width="1" fill="none" fill-rule="evenodd">
        <g id="分组" transform="translate(2.000000, 2.000000)" fill-rule="nonzero">
            <path d="M10,20.75 C4.06293894,20.75 -0.75,15.9370611 -0.75,10 C-0.75,4.06293894 4.06293894,-0.75 10,-0.75 C15.9370611,-0.75 20.75,4.06293894 20.75,10 C20.75,15.9370611 15.9370611,20.75 10,20.75 Z" id="椭圆形" fill="#F52C2C"></path>
            <g id="分组-3" transform="translate(6.000000, 8.000000)" fill="#FFFFFF">
                <path d="M1.11022302e-16,2.75 C-0.414213562,2.75 -0.75,2.41421356 -0.75,2 C-0.75,1.58578644 -0.414213562,1.25 1.11022302e-16,1.25 L8,1.25 C8.41421356,1.25 8.75,1.58578644 8.75,2 C8.75,2.41421356 8.41421356,2.75 8,2.75 L1.11022302e-16,2.75 Z" id="直线-2"></path>
            </g>
        </g>
    </g>
</svg>