<?xml version="1.0" encoding="UTF-8"?>
<svg width="22px" height="22px" viewBox="0 0 22 22" version="1.1" xmlns="http://www.w3.org/2000/svg" xmlns:xlink="http://www.w3.org/1999/xlink">
    <!-- Generator: Sketch 52.6 (67491) - http://www.bohemiancoding.com/sketch -->
    <title>icon_guanli</title>
    <desc>Created with Sketch.</desc>
    <g id="icon_guanli" stroke="none" stroke-width="1" fill="none" fill-rule="evenodd">
        <path d="M19.25,6.5 C19.25,6.08578644 19.5857864,5.75 20,5.75 C20.4142136,5.75 20.75,6.08578644 20.75,6.5 L20.75,17 C20.75,19.0710678 19.0710678,20.75 17,20.75 L5,20.75 C2.92893219,20.75 1.25,19.0710678 1.25,17 L1.25,5 C1.25,2.92893219 2.92893219,1.25 5,1.25 L15.5,1.25 C15.9142136,1.25 16.25,1.58578644 16.25,2 C16.25,2.41421356 15.9142136,2.75 15.5,2.75 L5,2.75 C3.75735931,2.75 2.75,3.75735931 2.75,5 L2.75,17 C2.75,18.2426407 3.75735931,19.25 5,19.25 L17,19.25 C18.2426407,19.25 19.25,18.2426407 19.25,17 L19.25,6.5 Z" id="路径" fill="#333333" fill-rule="nonzero"></path>
        <path d="M19.9549513,0.469669914 C20.2478445,0.176776695 20.7227182,0.176776695 21.0156115,0.469669914 C21.3085047,0.762563133 21.3085047,1.23743687 21.0156115,1.53033009 L9.70190296,12.8440386 C9.40900974,13.1369318 8.93413601,13.1369318 8.64124279,12.8440386 C8.34834957,12.5511454 8.34834957,12.0762716 8.64124279,11.7833784 L19.9549513,0.469669914 Z" id="Line-2" fill="#333333" fill-rule="nonzero"></path>
    </g>
</svg>