<?xml version="1.0" encoding="UTF-8"?>
<svg width="36px" height="36px" viewBox="0 0 36 36" version="1.1" xmlns="http://www.w3.org/2000/svg" xmlns:xlink="http://www.w3.org/1999/xlink">
    <!-- Generator: Sketch 52.6 (67491) - http://www.bohemiancoding.com/sketch -->
    <title>touxiang</title>
    <desc>Created with Sketch.</desc>
    <defs>
        <circle id="path-1" cx="18" cy="18" r="18"></circle>
    </defs>
    <g id="touxiang" stroke="none" stroke-width="1" fill="none" fill-rule="evenodd">
        <g id="分组-2">
            <mask id="mask-2" fill="white">
                <use xlink:href="#path-1"></use>
            </mask>
            <use id="Mask" fill="#F1F3F7" fill-rule="nonzero" xlink:href="#path-1"></use>
            <path d="M32.0146951,31.015383 C32.0628694,31.488731 32.0869565,31.1100526 32.0869565,31.5834006 C32.0869565,32.0567486 32.0508258,32.5064291 31.9845862,32.9324423 C31.9123248,33.3584554 31.8039327,33.6779653 31.6654316,33.8968887 C31.5630613,34.0388931 30.6549788,35.7606963 30.1732361,35.9263681 C29.6914934,36.0920399 25.2763191,35.9263681 18.206745,35.9263681 C11.7453711,35.9263681 6.18124296,34.8968363 5.29604074,34.7015803 C4.41083855,34.5063242 3.88092157,34.3406524 3.69424626,34.2045649 C3.46541849,34.0388931 3.29680855,33.5477946 3.18841642,32.7253525 C3.08002431,31.8969936 3.12217678,31.6899039 3.32691745,30.4000307 C3.45337492,29.6545077 3.76048587,29.0864901 4.24825035,28.7078117 C4.74203662,28.3232165 5.32614964,28.0214572 5.98854583,27.8025338 C6.65696382,27.5776935 9.75216067,26.5304112 10.4627311,26.3469888 C11.1733016,26.1635665 11.7935453,25.9032251 12.3234623,25.5600479 C12.7570307,25.2997065 13.0882288,25.045282 13.3230784,24.8026911 C13.5579279,24.5601003 13.7265379,24.3175095 13.8168646,24.0749186 C13.9071914,23.8323278 13.9553657,23.5838201 13.9553657,23.3175619 C13.9553657,23.0572205 13.9433221,22.7732118 13.9252568,22.4655356 C13.8831043,21.9803539 13.7265379,21.6075924 13.4495358,21.347251 C13.1725338,21.0869097 12.8654228,20.8147346 12.5101376,20.5307258 C12.3415276,20.3887214 12.2030266,20.1934654 12.0765692,19.9390409 C11.9501117,19.6846163 11.8417196,19.4301918 11.7393493,19.1698504 C11.636979,18.8680911 11.5346086,18.5544981 11.4322383,18.2349882 C11.2877155,18.1935703 11.1431927,18.1284849 10.9986699,18.0219816 C10.8722124,17.9213952 10.7397332,17.7793908 10.5952104,17.5959685 C10.4506876,17.4125462 10.3302519,17.1522048 10.2218598,16.8090275 C10.1194895,16.4717671 10.0833588,16.1581741 10.1194895,15.885999 C10.1495984,15.6138239 10.2037944,15.3771499 10.2880994,15.1759771 C10.3663826,14.9511368 10.4928401,14.7440471 10.66145,14.5369573 C10.6433846,13.7736838 10.6795154,13.0044933 10.7879075,12.2353029 C10.8661907,11.5903663 11.0167352,10.9040118 11.2335194,10.1762393 C11.4503037,9.44846682 11.7634364,8.79169651 12.1729177,8.21184528 C12.5643336,7.66749512 12.9979021,7.21781458 13.4796448,6.86280362 C13.9613875,6.50779267 14.449152,6.22970074 14.9429382,6.02852786 C15.4367245,5.82735499 15.9305107,5.69126744 16.4363406,5.60251472 C16.9361486,5.52559566 17.4239131,5.47826087 17.899634,5.47826087 C18.4897688,5.47826087 19.0678601,5.54926306 19.6098206,5.69126744 C20.1517812,5.83327182 20.657611,6.0107773 21.1333319,6.2356176 C21.603031,6.46045788 22.0305776,6.70304871 22.3918847,6.97522377 C22.7652353,7.24739884 23.0603027,7.52549077 23.2891304,7.80949953 C23.8009821,8.45443612 24.1863762,9.16445806 24.4453129,9.93956532 C24.7042496,10.7146726 24.8849031,11.4424451 24.9812517,12.1287996 C25.1077091,12.9334911 25.1558834,13.7440995 25.137818,14.548791 C25.2823408,14.6257101 25.3967547,14.7499639 25.4750379,14.9156357 C25.5533211,15.0576401 25.6255825,15.2351455 25.6737568,15.4599858 C25.7219311,15.6848261 25.7279529,15.9510843 25.6858004,16.2765111 C25.6255825,16.7025242 25.5232122,17.0338678 25.3967547,17.2882923 C25.2582537,17.5427169 25.1137309,17.7379729 24.9511428,17.8799773 C24.7644675,18.0456491 24.5717704,18.1521524 24.3670297,18.2113208 C24.2887465,18.5308307 24.192398,18.8503406 24.0900277,19.1461831 C23.9876574,19.4065244 23.8672217,19.6668658 23.7407643,19.9153735 C23.6022632,20.169798 23.4577404,20.365054 23.2951523,20.5070584 C23.108477,20.6727302 22.939867,20.8029009 22.7712571,20.9153211 C22.6026472,21.0218243 22.4641461,21.1401613 22.3376887,21.2584983 C22.2112312,21.3827522 22.1088609,21.5247565 22.0305777,21.6963452 C21.9522945,21.8679338 21.8860549,22.0750235 21.8439024,22.3176143 C21.7836846,22.6193737 21.7656192,22.9270498 21.7836846,23.2406429 C21.8017499,23.548319 21.8860549,23.8678289 22.0305777,24.1755051 C22.1751005,24.4831812 22.4099501,24.7849406 22.7411482,25.0689493 C23.0663245,25.3529581 23.5119365,25.6014658 24.0659406,25.8263061 C24.5777922,26.0274789 25.1438399,26.2049844 25.7460182,26.3529057 C26.3542184,26.5067437 28.7930408,27.5362755 29.3530667,27.7492821 C29.9130926,27.9622887 30.4189224,28.2285469 30.8585126,28.5480568 C31.2860593,28.9030678 31.599192,29.3231641 31.7858673,29.8497637 C31.8882377,30.151523 31.9665209,30.5420351 32.0146951,31.015383 Z M18.8906414,34.2359675 C19.1167562,34.0973993 19.3365901,33.9467818 19.5501431,33.7600161 C19.763696,33.5732503 19.9521251,33.3864846 20.1091493,33.2057435 C20.2724545,33.0189778 20.3478261,32.8804097 20.3478261,32.7719651 C20.3478261,32.6454463 20.3164212,32.4345818 20.2536115,32.1212973 C20.1908019,31.8140375 20.1091493,31.4706296 20.0274967,31.1091475 C19.9458441,30.735616 19.8516296,30.3741339 19.769977,30.0126519 C19.6883243,29.6511698 19.6066718,29.3619841 19.5438621,29.1330455 C19.757415,28.9643538 19.9395631,28.7896375 20.0903064,28.5968471 C20.2410496,28.3980319 20.3164212,28.1992168 20.3164212,27.9943769 C20.3164212,27.8256853 20.2598925,27.6630184 20.1405541,27.488302 C20.0274967,27.3135857 19.8893154,27.1689928 19.7385721,27.0424741 C19.562705,26.8978813 19.3868379,26.7532885 19.1921279,26.6086957 L17.5904808,26.6086957 C17.3769279,26.7532885 17.1947798,26.8978813 17.0440366,27.0424741 C16.9121362,27.1689929 16.7990788,27.307561 16.6923023,27.4762526 C16.5855259,27.6449442 16.5289972,27.8015865 16.5289972,27.9702781 C16.5289972,28.0967969 16.6043688,28.2594638 16.767674,28.4643036 C16.9309791,28.6691435 17.1256892,28.8679586 17.358085,29.0486997 C17.2952753,29.2354654 17.2073418,29.5005523 17.1005653,29.8499849 C16.9937888,30.1933929 16.8932933,30.5608997 16.7990788,30.9464805 C16.7048643,31.3260367 16.6169307,31.6875188 16.5415591,32.0249021 C16.4661875,32.3622853 16.4347826,32.6092981 16.4347826,32.7779897 C16.4347826,32.8804097 16.5101542,33.0250025 16.6734594,33.2117682 C16.8367646,33.398534 17.0251936,33.5852997 17.2513085,33.7660407 C17.4774234,33.9528065 17.6972573,34.1094487 17.9108103,34.2419921 C18.1306441,34.3624862 18.2939493,34.4347826 18.3944448,34.4347826 C18.5012213,34.4347826 18.6645265,34.3685109 18.8906414,34.2359675 Z" id="形状" fill="#C8CDD7" fill-rule="nonzero" mask="url(#mask-2)"></path>
        </g>
    </g>
</svg>