<?xml version="1.0" encoding="UTF-8"?>
<svg width="22px" height="22px" viewBox="0 0 22 22" version="1.1" xmlns="http://www.w3.org/2000/svg" xmlns:xlink="http://www.w3.org/1999/xlink">
    <!-- Generator: Sketch 52.6 (67491) - http://www.bohemiancoding.com/sketch -->
    <title>icon_close_black</title>
    <desc>Created with Sketch.</desc>
    <g id="icon_close_black" stroke="none" stroke-width="1" fill="none" fill-rule="evenodd">
        <g id="Group" transform="translate(1.000000, 1.000000)" fill="#0D0015" fill-rule="nonzero">
            <path d="M-0.135197197,1.27901637 C-0.525721489,0.888492074 -0.525721489,0.255327095 -0.135197197,-0.135197197 C0.255327095,-0.525721489 0.888492074,-0.525721489 1.27901637,-0.135197197 L20.1351972,18.7209836 C20.5257215,19.1115079 20.5257215,19.7446729 20.1351972,20.1351972 C19.7446729,20.5257215 19.1115079,20.5257215 18.7209836,20.1351972 L-0.135197197,1.27901637 Z" id="Line-3"></path>
            <path d="M18.7209836,-0.135197197 C19.1115079,-0.525721489 19.7446729,-0.525721489 20.1351972,-0.135197197 C20.5257215,0.255327095 20.5257215,0.888492074 20.1351972,1.27901637 L1.27901637,20.1351972 C0.888492074,20.5257215 0.255327095,20.5257215 -0.135197197,20.1351972 C-0.525721489,19.7446729 -0.525721489,19.1115079 -0.135197197,18.7209836 L18.7209836,-0.135197197 Z" id="Line-3"></path>
        </g>
    </g>
</svg>