<?xml version="1.0" encoding="UTF-8"?>
<svg width="24px" height="24px" viewBox="0 0 24 24" version="1.1" xmlns="http://www.w3.org/2000/svg" xmlns:xlink="http://www.w3.org/1999/xlink">
    <!-- Generator: Sketch 52.6 (67491) - http://www.bohemiancoding.com/sketch -->
    <title>icon_sjgx</title>
    <desc>Created with Sketch.</desc>
    <g id="icon_sjgx" stroke="none" stroke-width="1" fill="none" fill-rule="evenodd">
        <path d="M20.7728903,5.78580294 C21.0125836,6.12361947 20.933039,6.59178367 20.5952225,6.83147695 C20.2574059,7.07117022 19.7892417,6.9916256 19.5495485,6.65380906 C17.8247957,4.22299403 15.0366897,2.75 12,2.75 C6.89136606,2.75 2.75,6.89136606 2.75,12 C2.75,12.4142136 2.41421356,12.75 2,12.75 C1.58578644,12.75 1.25,12.4142136 1.25,12 C1.25,6.06293894 6.06293894,1.25 12,1.25 C15.5280149,1.25 18.7697677,2.96266174 20.7728903,5.78580294 Z M3.28534076,18.2954651 C3.04252496,17.9598859 3.11772452,17.4910042 3.45330367,17.2481884 C3.78888282,17.0053726 4.25776456,17.0805722 4.50058036,17.4161513 C6.23022082,19.8065694 8.9937007,21.25 12,21.25 C17.1086339,21.25 21.25,17.1086339 21.25,12 C21.25,11.5857864 21.5857864,11.25 22,11.25 C22.4142136,11.25 22.75,11.5857864 22.75,12 C22.75,17.9370611 17.9370611,22.75 12,22.75 C8.5073269,22.75 5.2941253,21.0716692 3.28534076,18.2954651 Z" id="形状" fill="#333333" fill-rule="nonzero"></path>
        <path d="M21.1864135,7.71578026 C21.4778237,8.01014902 21.4754253,8.4850167 21.1810565,8.7764269 C20.8866878,9.06783711 20.4118201,9.06543873 20.1204099,8.77106997 L17.1204099,5.74061233 C16.8300398,5.4472943 16.8312338,4.97448515 17.1230816,4.68263739 L20.1230816,1.68263739 C20.4159748,1.38974417 20.8908485,1.38974417 21.1837417,1.68263739 C21.476635,1.97553061 21.476635,2.45040435 21.1837417,2.74329757 L18.7114001,5.21563922 L21.1864135,7.71578026 Z" id="Line-2" fill="#333333" fill-rule="nonzero" transform="translate(19.153412, 5.228196) scale(-1, 1) rotate(-43.000000) translate(-19.153412, -5.228196) "></path>
        <path d="M6.86355117,21.3175943 C7.15496137,21.611963 7.15256299,22.0868307 6.85819423,22.3782409 C6.56382547,22.6696511 6.08895779,22.6672527 5.79754758,22.372884 L2.79754758,19.3424263 C2.50717755,19.0491083 2.50837154,18.5762991 2.80021929,18.2844514 L5.80021929,15.2844514 C6.09311251,14.9915582 6.56798624,14.9915582 6.86087946,15.2844514 C7.15377268,15.5773446 7.15377268,16.0522183 6.86087946,16.3451116 L4.38853781,18.8174532 L6.86355117,21.3175943 Z" id="Line-2-Copy" fill="#333333" fill-rule="nonzero" transform="translate(4.830549, 18.830010) scale(1, -1) rotate(-43.000000) translate(-4.830549, -18.830010) "></path>
    </g>
</svg>