<?xml version="1.0" encoding="UTF-8"?>
<svg width="18px" height="18px" viewBox="0 0 18 18" version="1.1" xmlns="http://www.w3.org/2000/svg" xmlns:xlink="http://www.w3.org/1999/xlink">
    <!-- Generator: Sketch 52.6 (67491) - http://www.bohemiancoding.com/sketch -->
    <title>icon_search</title>
    <desc>Created with Sketch.</desc>
    <g id="icon_search" stroke="none" stroke-width="1" fill="none" fill-rule="evenodd">
        <path d="M14.1233689,13.3174677 L17.5299791,16.7195727 C17.823066,17.012272 17.8233802,17.4871457 17.5306809,17.7802326 C17.2379815,18.0733196 16.7631079,18.0736338 16.4700209,17.7809344 L12.5353252,13.8514422 C12.232846,13.549363 12.2436494,13.0559431 12.5590602,12.7673925 C13.8879362,11.5516832 14.6581133,9.84063183 14.6581133,8.00405667 C14.6581133,4.4395796 11.7685337,1.55 8.20405667,1.55 C4.6395796,1.55 1.75,4.4395796 1.75,8.00405667 C1.75,11.5685337 4.6395796,14.4581133 8.20405667,14.4581133 C8.95058824,14.4581133 9.67876418,14.3316434 10.3664836,14.0871564 C10.756768,13.9484087 11.1856333,14.1523195 11.324381,14.542604 C11.4631287,14.9328885 11.2592178,15.3617537 10.8689334,15.5005014 C10.0204634,15.8021359 9.12239227,15.9581133 8.20405667,15.9581133 C3.81115247,15.9581133 0.25,12.3969609 0.25,8.00405667 C0.25,3.61115247 3.81115247,0.05 8.20405667,0.05 C12.5969609,0.05 16.1581133,3.61115247 16.1581133,8.00405667 C16.1581133,9.99829497 15.4195233,11.8752402 14.1233689,13.3174677 Z" id="Oval-4" fill="#333333" fill-rule="nonzero"></path>
    </g>
</svg>