<?xml version="1.0" encoding="UTF-8"?>
<svg width="24px" height="24px" viewBox="0 0 24 24" version="1.1" xmlns="http://www.w3.org/2000/svg" xmlns:xlink="http://www.w3.org/1999/xlink">
    <!-- Generator: Sketch 52.6 (67491) - http://www.bohemiancoding.com/sketch -->
    <title>icon_mima</title>
    <desc>Created with Sketch.</desc>
    <g id="icon_mima" stroke="none" stroke-width="1" fill="none" fill-rule="evenodd">
        <path d="M3.75,11.75 L3.75,14 C3.75,18.5563492 7.44365081,22.25 12,22.25 C16.5563492,22.25 20.25,18.5563492 20.25,14 L20.25,11.75 L3.75,11.75 Z M3,10.25 L21,10.25 C21.4142136,10.25 21.75,10.5857864 21.75,11 L21.75,14 C21.75,19.3847763 17.3847763,23.75 12,23.75 C6.61522369,23.75 2.25,19.3847763 2.25,14 L2.25,11 C2.25,10.5857864 2.58578644,10.25 3,10.25 Z" id="矩形" fill="#BBBBBB" fill-rule="nonzero"></path>
        <path d="M6.75,10.25 L18,10.25 C18.4142136,10.25 18.75,10.5857864 18.75,11 C18.75,11.4142136 18.4142136,11.75 18,11.75 L6,11.75 C5.58578644,11.75 5.25,11.4142136 5.25,11 L5.25,7 C5.25,3.27207794 8.27207794,0.25 12,0.25 C15.7279221,0.25 18.75,3.27207794 18.75,7 C18.75,7.41421356 18.4142136,7.75 18,7.75 C17.5857864,7.75 17.25,7.41421356 17.25,7 C17.25,4.10050506 14.8994949,1.75 12,1.75 C9.10050506,1.75 6.75,4.10050506 6.75,7 L6.75,10.25 Z" id="路径" fill="#BBBBBB" fill-rule="nonzero"></path>
        <circle id="椭圆形" fill="#BBBBBB" fill-rule="nonzero" cx="12" cy="15" r="2"></circle>
        <path d="M11.25,15.5 C11.25,15.0857864 11.5857864,14.75 12,14.75 C12.4142136,14.75 12.75,15.0857864 12.75,15.5 L12.75,18.5 C12.75,18.9142136 12.4142136,19.25 12,19.25 C11.5857864,19.25 11.25,18.9142136 11.25,18.5 L11.25,15.5 Z" id="直线" fill="#BBBBBB" fill-rule="nonzero"></path>
    </g>
</svg>