<?xml version="1.0" encoding="UTF-8"?>
<svg width="16px" height="16px" viewBox="0 0 16 16" version="1.1" xmlns="http://www.w3.org/2000/svg" xmlns:xlink="http://www.w3.org/1999/xlink">
    <!-- Generator: Sketch 52.6 (67491) - http://www.bohemiancoding.com/sketch -->
    <title>icon_zhufang</title>
    <desc>Created with Sketch.</desc>
    <g id="icon_zhufang" stroke="none" stroke-width="1" fill="none" fill-rule="evenodd">
        <path d="M12,14.25 L12,15 C12,15.2761424 11.7761424,15.5 11.5,15.5 L8.5,15.5 C8.22385763,15.5 8,15.2761424 8,15 L8,14.25 L3,14.25 C2.44771525,14.25 2,13.8022847 2,13.25 L2,6.25 L1.5,6.25 C1.22385763,6.25 1,6.02614237 1,5.75 C1,5.59262135 1.07409708,5.44442719 1.2,5.35 L7.4,0.7 C7.75555556,0.433333333 8.24444444,0.433333333 8.6,0.7 L14.8,5.35 C15.0209139,5.51568542 15.0656854,5.8290861 14.9,6.05 C14.8055728,6.17590292 14.6573787,6.25 14.5,6.25 L14,6.25 L14,13.25 C14,13.8022847 13.5522847,14.25 13,14.25 L12,14.25 Z M12,14.25 L12,11 C12,10.7238576 11.7761424,10.5 11.5,10.5 L8.5,10.5 C8.22385763,10.5 8,10.7238576 8,11 L8,14.25 L12,14.25 Z" id="合并形状" fill="#333333" fill-rule="nonzero"></path>
    </g>
</svg>