<?xml version="1.0" encoding="UTF-8"?>
<svg width="22px" height="22px" viewBox="0 0 22 22" version="1.1" xmlns="http://www.w3.org/2000/svg" xmlns:xlink="http://www.w3.org/1999/xlink">
    <!-- Generator: Sketch 52.6 (67491) - http://www.bohemiancoding.com/sketch -->
    <title>icon_return</title>
    <desc>Created with Sketch.</desc>
    <g id="icon_return" stroke="none" stroke-width="1" fill="none" fill-rule="evenodd">
        <path d="M2.41065124,10.9030573 L11.610164,20.1959685 C11.9987109,20.5884601 11.9955131,21.2216171 11.6030214,21.610164 C11.2105297,21.9987109 10.5773728,21.9955131 10.1888259,21.6030214 L0.289330945,11.6030214 C-0.0978290995,11.2119307 -0.0962371191,10.5815185 0.292893219,10.1923882 L10.1923882,0.292893219 C10.5829124,-0.0976310729 11.2160774,-0.0976310729 11.6066017,0.292893219 C11.997126,0.683417511 11.997126,1.31658249 11.6066017,1.70710678 L2.41065124,10.9030573 Z" id="Line-2" fill="#0D0015" fill-rule="nonzero"></path>
        <path d="M2,12 C1.44771525,12 1,11.5522847 1,11 C1,10.4477153 1.44771525,10 2,10 L20.4541791,10 C21.0064638,10 21.4541791,10.4477153 21.4541791,11 C21.4541791,11.5522847 21.0064638,12 20.4541791,12 L2,12 Z" id="形状" fill="#0D0015" fill-rule="nonzero"></path>
    </g>
</svg>