<?xml version="1.0" encoding="UTF-8"?>
<svg width="30px" height="30px" viewBox="0 0 30 30" version="1.1" xmlns="http://www.w3.org/2000/svg" xmlns:xlink="http://www.w3.org/1999/xlink">
    <!-- Generator: Sketch 52.6 (67491) - http://www.bohemiancoding.com/sketch -->
    <title>icon_close</title>
    <desc>Created with Sketch.</desc>
    <g id="icon_close" stroke="none" stroke-width="1" fill="none" fill-rule="evenodd">
        <g id="分组" transform="translate(1.000000, 1.000000)" fill="#FFFFFF" fill-rule="nonzero">
            <path d="M14,28.75 C5.85379994,28.75 -0.75,22.1462001 -0.75,14 C-0.75,5.85379994 5.85379994,-0.75 14,-0.75 C22.1462001,-0.75 28.75,5.85379994 28.75,14 C28.75,22.1462001 22.1462001,28.75 14,28.75 Z M14,27.25 C21.3177729,27.25 27.25,21.3177729 27.25,14 C27.25,6.68222707 21.3177729,0.75 14,0.75 C6.68222707,0.75 0.75,6.68222707 0.75,14 C0.75,21.3177729 6.68222707,27.25 14,27.25 Z" id="椭圆形"></path>
            <g id="Group" transform="translate(8.400000, 8.400000)">
                <path d="M-0.210060719,0.850599453 C-0.502953938,0.557706234 -0.502953938,0.0828325001 -0.210060719,-0.210060719 C0.0828325001,-0.502953938 0.557706234,-0.502953938 0.850599453,-0.210060719 L11.4100607,10.3494005 C11.7029539,10.6422938 11.7029539,11.1171675 11.4100607,11.4100607 C11.1171675,11.7029539 10.6422938,11.7029539 10.3494005,11.4100607 L-0.210060719,0.850599453 Z" id="Line-3"></path>
                <path d="M10.3494005,-0.210060719 C10.6422938,-0.502953938 11.1171675,-0.502953938 11.4100607,-0.210060719 C11.7029539,0.0828325001 11.7029539,0.557706234 11.4100607,0.850599453 L0.850599453,11.4100607 C0.557706234,11.7029539 0.0828325001,11.7029539 -0.210060719,11.4100607 C-0.502953938,11.1171675 -0.502953938,10.6422938 -0.210060719,10.3494005 L10.3494005,-0.210060719 Z" id="Line-3"></path>
            </g>
        </g>
    </g>
</svg>