<?xml version="1.0" encoding="UTF-8"?>
<svg width="20px" height="20px" viewBox="0 0 20 20" version="1.1" xmlns="http://www.w3.org/2000/svg" xmlns:xlink="http://www.w3.org/1999/xlink">
    <!-- Generator: Sketch 52.6 (67491) - http://www.bohemiancoding.com/sketch -->
    <title>icon_xuanzhong</title>
    <desc>Created with Sketch.</desc>
    <g id="icon_xuanzhong" stroke="none" stroke-width="1" fill="none" fill-rule="evenodd">
        <path d="M10,20 C4.4771525,20 0,15.5228475 0,10 C0,4.4771525 4.4771525,0 10,0 C15.5228475,0 20,4.4771525 20,10 C20,15.5228475 15.5228475,20 10,20 Z M9.50940695,12.4313609 L5.82625936,8.80411715 C5.53113497,8.51347223 5.05627512,8.51710356 4.76563021,8.81222796 C4.47498529,9.10735235 4.47861662,9.5822122 4.77374102,9.87285712 L9.02146613,14.0561091 C9.32812653,14.3581149 9.82549411,14.3406363 10.1101979,14.0178486 L15.8624727,7.4961095 C16.1364664,7.18546449 16.1067547,6.71152116 15.7961097,6.43752745 C15.4854647,6.16353374 15.0115214,6.19324549 14.7375276,6.5038905 L9.50940695,12.4313609 Z" id="合并形状" fill="#3AB0FF"></path>
    </g>
</svg>