<?xml version="1.0" encoding="UTF-8"?>
<svg width="20px" height="20px" viewBox="0 0 20 20" version="1.1" xmlns="http://www.w3.org/2000/svg" xmlns:xlink="http://www.w3.org/1999/xlink">
    <!-- Generator: Sketch 52.6 (67491) - http://www.bohemiancoding.com/sketch -->
    <title>icon_gonggao</title>
    <desc>Created with Sketch.</desc>
    <g id="icon_gonggao" stroke="none" stroke-width="1" fill="none" fill-rule="evenodd">
        <g id="分组-3" fill="#3AB0FF" fill-rule="nonzero">
            <g id="分组" transform="translate(1.500000, 2.000000)">
                <path d="M3.88196601,3.5 L10.3291796,0.276393202 C11.0701474,-0.0940906708 11.9711569,0.206245849 12.3416408,0.947213596 C12.4457824,1.15549675 12.5,1.38516635 12.5,1.61803399 L12.5,14.381966 C12.5,15.2103931 11.8284271,15.881966 11,15.881966 C10.7671324,15.881966 10.5374628,15.8277484 10.3291796,15.7236068 L3.88196601,12.5 L2,12.5 C1.17157288,12.5 0.5,11.8284271 0.5,11 L0.5,5 C0.5,4.17157288 1.17157288,3.5 2,3.5 L3.88196601,3.5 Z" id="合并形状"></path>
                <path d="M14.75,3.5 C14.75,3.08578644 15.0857864,2.75 15.5,2.75 C15.9142136,2.75 16.25,3.08578644 16.25,3.5 L16.25,12.5 C16.25,12.9142136 15.9142136,13.25 15.5,13.25 C15.0857864,13.25 14.75,12.9142136 14.75,12.5 L14.75,3.5 Z" id="直线"></path>
            </g>
        </g>
    </g>
</svg>