<?xml version="1.0" encoding="UTF-8"?>
<svg width="38px" height="32px" viewBox="0 0 38 32" version="1.1" xmlns="http://www.w3.org/2000/svg" xmlns:xlink="http://www.w3.org/1999/xlink">
    <!-- Generator: Sketch 52.6 (67491) - http://www.bohemiancoding.com/sketch -->
    <title>icon_camera</title>
    <desc>Created with Sketch.</desc>
    <g id="icon_camera" stroke="none" stroke-width="1" fill="none" fill-rule="evenodd">
        <g id="相机" fill="#CCCCCC" fill-rule="nonzero">
            <path d="M11.0410167,5.21629984 C10.929698,5.50610274 10.6513385,5.69736842 10.3408911,5.69736842 L4.99017859,5.69736842 C3.20030352,5.69736842 1.75,7.15133086 1.75,8.9467701 L1.75,27.0005983 C1.75,28.7955118 3.2011065,30.25 4.99017859,30.25 L33.0098214,30.25 C34.7996965,30.25 36.25,28.7960376 36.25,27.0005983 L36.25,8.9467701 C36.25,7.15185665 34.7988935,5.69736842 33.0098214,5.69736842 L27.6593491,5.69736842 C27.3694456,5.69736842 27.1055028,5.53029066 26.981465,5.26826269 C26.8799172,5.05374453 26.495553,4.05331046 25.8131014,2.22403459 C25.697087,1.98997047 25.3123701,1.75 25.0529108,1.75 L12.9470892,1.75 C12.6994201,1.75 12.328487,1.97460953 12.1994019,2.20060476 L11.0410167,5.21629984 Z M9.82555297,4.19736842 L10.814788,1.62203235 L10.8429286,1.55789295 C11.2120858,0.813102231 12.1212806,0.25 12.9470892,0.25 L25.0529108,0.25 C25.8838058,0.25 26.7885192,0.814322749 27.1872619,1.62743091 C27.6442854,2.84515645 27.9742842,3.71327428 28.1633464,4.19736842 L33.0098214,4.19736842 C35.6281033,4.19736842 37.75,6.32421014 37.75,8.9467701 L37.75,27.0005983 C37.75,29.6236198 35.6289709,31.75 33.0098214,31.75 L4.99017859,31.75 C2.37189674,31.75 0.25,29.6231583 0.25,27.0005983 L0.25,8.9467701 C0.25,6.32374864 2.37102914,4.19736842 4.99017859,4.19736842 L9.82555297,4.19736842 Z" id="Combined-Shape"></path>
            <path d="M19.4285714,26.6071429 C14.5259787,26.6071429 10.5357143,22.8268924 10.5357143,18.1428571 C10.5357143,13.4588219 14.5259787,9.67857143 19.4285714,9.67857143 C24.3311642,9.67857143 28.3214286,13.4588219 28.3214286,18.1428571 C28.3214286,22.8268924 24.3311642,26.6071429 19.4285714,26.6071429 Z M19.4285714,25.1071429 C23.5203303,25.1071429 26.8214286,21.9797866 26.8214286,18.1428571 C26.8214286,14.3059277 23.5203303,11.1785714 19.4285714,11.1785714 C15.3368125,11.1785714 12.0357143,14.3059277 12.0357143,18.1428571 C12.0357143,21.9797866 15.3368125,25.1071429 19.4285714,25.1071429 Z" id="Oval-62"></path>
            <path d="M32.7142857,11.7857143 C31.4913695,11.7857143 30.5,10.7943448 30.5,9.57142857 C30.5,8.34851234 31.4913695,7.35714286 32.7142857,7.35714286 C33.9372019,7.35714286 34.9285714,8.34851234 34.9285714,9.57142857 C34.9285714,10.7943448 33.9372019,11.7857143 32.7142857,11.7857143 Z" id="Oval-64"></path>
        </g>
    </g>
</svg>