<?xml version="1.0" encoding="UTF-8"?>
<svg width="16px" height="16px" viewBox="0 0 16 16" version="1.1" xmlns="http://www.w3.org/2000/svg" xmlns:xlink="http://www.w3.org/1999/xlink">
    <!-- Generator: Sketch 52.6 (67491) - http://www.bohemiancoding.com/sketch -->
    <title>icon_shouji</title>
    <desc>Created with Sketch.</desc>
    <g id="icon_shouji" stroke="none" stroke-width="1" fill="none" fill-rule="evenodd">
        <g id="Group-7" transform="translate(3.000000, 1.000000)" fill="#CCCCCC" fill-rule="nonzero">
            <path d="M2.24839531,0.0721153846 L7.75160469,0.0721153846 C8.32183192,0.0721153846 8.63806202,0.131500726 8.96924673,0.308620244 C9.27876615,0.474153042 9.52584696,0.721233852 9.69137976,1.03075327 C9.86849927,1.36193798 9.92788462,1.67816808 9.92788462,2.24839531 L9.92788462,11.5977585 C9.92788462,12.1679858 9.86849927,12.4842159 9.69137976,12.8154006 C9.52584696,13.12492 9.27876615,13.3720008 8.96924673,13.5375336 C8.63806202,13.7146531 8.32183192,13.7740385 7.75160469,13.7740385 L2.24839531,13.7740385 C1.67816808,13.7740385 1.36193798,13.7146531 1.03075327,13.5375336 C0.721233852,13.3720008 0.474153042,13.12492 0.308620244,12.8154006 C0.131500726,12.4842159 0.0721153846,12.1679858 0.0721153846,11.5977585 L0.0721153846,2.24839531 C0.0721153846,1.67816808 0.131500726,1.36193798 0.308620244,1.03075327 C0.474153042,0.721233852 0.721233852,0.474153042 1.03075327,0.308620244 C1.36193798,0.131500726 1.67816808,0.0721153846 2.24839531,0.0721153846 Z M5,12.8461515 C5.42483442,12.8461515 5.76923077,12.5017552 5.76923077,12.0769207 C5.76923077,11.6520863 5.42483442,11.30769 5,11.30769 C4.57516558,11.30769 4.23076923,11.6520863 4.23076923,12.0769207 C4.23076923,12.5017552 4.57516558,12.8461515 5,12.8461515 Z M2.33967566,1.53846154 C2.06107606,1.53846154 1.96004911,1.56746954 1.85819726,1.62194051 C1.7563454,1.67641147 1.67641147,1.7563454 1.62194051,1.85819726 C1.56746954,1.96004911 1.53846154,2.06107606 1.53846154,2.33967566 L1.53846154,9.96801664 C1.53846154,10.2466163 1.56746954,10.3476432 1.62194051,10.4494951 C1.67641147,10.5513469 1.7563454,10.6312808 1.85819726,10.6857518 C1.96004911,10.7402228 2.06107606,10.7692308 2.33967566,10.7692308 L7.66032434,10.7692308 C7.93892394,10.7692308 8.03995089,10.7402228 8.14180274,10.6857518 C8.2436546,10.6312808 8.32358853,10.5513469 8.37805949,10.4494951 C8.43253046,10.3476432 8.46153846,10.2466163 8.46153846,9.96801664 L8.46153846,2.33967566 C8.46153846,2.06107606 8.43253046,1.96004911 8.37805949,1.85819726 C8.32358853,1.7563454 8.2436546,1.67641147 8.14180274,1.62194051 C8.03995089,1.56746954 7.93892394,1.53846154 7.66032434,1.53846154 L2.33967566,1.53846154 Z" id="合并形状"></path>
        </g>
    </g>
</svg>