<?xml version="1.0" encoding="UTF-8"?>
<svg width="22px" height="22px" viewBox="0 0 22 22" version="1.1" xmlns="http://www.w3.org/2000/svg" xmlns:xlink="http://www.w3.org/1999/xlink">
    <!-- Generator: Sketch 52.6 (67491) - http://www.bohemiancoding.com/sketch -->
    <title>icon_lishi</title>
    <desc>Created with Sketch.</desc>
    <g id="icon_lishi" stroke="none" stroke-width="1" fill="none" fill-rule="evenodd">
        <g id="分组-2" transform="translate(2.000000, 2.000000)" fill="#BBBBBB" fill-rule="nonzero">
            <path d="M6.01763596,15.25 C6.43184952,15.25 6.76763596,15.5857864 6.76763596,16 C6.76763596,16.4142136 6.43184952,16.75 6.01763596,16.75 L2,16.75 C0.481216938,16.75 -0.75,15.5187831 -0.75,14 L-0.75,2 C-0.75,0.481216938 0.481216938,-0.75 2,-0.75 L14,-0.75 C15.5187831,-0.75 16.75,0.481216938 16.75,2 L16.75,5.9924747 C16.75,6.40668826 16.4142136,6.7424747 16,6.7424747 C15.5857864,6.7424747 15.25,6.40668826 15.25,5.9924747 L15.25,2 C15.25,1.30964406 14.6903559,0.75 14,0.75 L2,0.75 C1.30964406,0.75 0.75,1.30964406 0.75,2 L0.75,14 C0.75,14.6903559 1.30964406,15.25 2,15.25 L6.01763596,15.25 Z" id="路径"></path>
            <path d="M2.90909091,5.47727273 C2.49487735,5.47727273 2.15909091,5.14148629 2.15909091,4.72727273 C2.15909091,4.31305916 2.49487735,3.97727273 2.90909091,3.97727273 L13.643112,3.97727273 C14.0573256,3.97727273 14.393112,4.31305916 14.393112,4.72727273 C14.393112,5.14148629 14.0573256,5.47727273 13.643112,5.47727273 L2.90909091,5.47727273 Z" id="直线"></path>
            <path d="M2.90909091,9.84090909 C2.49487735,9.84090909 2.15909091,9.50512265 2.15909091,9.09090909 C2.15909091,8.67669553 2.49487735,8.34090909 2.90909091,8.34090909 L6.5,8.34090909 C6.91421356,8.34090909 7.25,8.67669553 7.25,9.09090909 C7.25,9.50512265 6.91421356,9.84090909 6.5,9.84090909 L2.90909091,9.84090909 Z" id="直线-copy"></path>
        </g>
        <path d="M15.5,20.75 C12.6005051,20.75 10.25,18.3994949 10.25,15.5 C10.25,12.6005051 12.6005051,10.25 15.5,10.25 C18.3994949,10.25 20.75,12.6005051 20.75,15.5 C20.75,18.3994949 18.3994949,20.75 15.5,20.75 Z M15.5,19.25 C17.5710678,19.25 19.25,17.5710678 19.25,15.5 C19.25,13.4289322 17.5710678,11.75 15.5,11.75 C13.4289322,11.75 11.75,13.4289322 11.75,15.5 C11.75,17.5710678 13.4289322,19.25 15.5,19.25 Z" id="椭圆形" fill="#BBBBBB" fill-rule="nonzero"></path>
        <path d="M17.5230895,14.75 C17.937303,14.75 18.2730895,15.0857864 18.2730895,15.5 C18.2730895,15.9142136 17.937303,16.25 17.5230895,16.25 L15.643112,16.25 C15.2288985,16.25 14.893112,15.9142136 14.893112,15.5 L14.893112,13.5 C14.893112,13.0857864 15.2288985,12.75 15.643112,12.75 C16.0573256,12.75 16.393112,13.0857864 16.393112,13.5 L16.393112,14.75 L17.5230895,14.75 Z" id="直线-2" fill="#BBBBBB" fill-rule="nonzero"></path>
    </g>
</svg>