<?xml version="1.0" encoding="UTF-8"?>
<svg width="22px" height="22px" viewBox="0 0 22 22" version="1.1" xmlns="http://www.w3.org/2000/svg" xmlns:xlink="http://www.w3.org/1999/xlink">
    <!-- Generator: Sketch 52.6 (67491) - http://www.bohemiancoding.com/sketch -->
    <title>icon_plus</title>
    <desc>Created with Sketch.</desc>
    <g id="icon_plus" stroke="none" stroke-width="1" fill="none" fill-rule="evenodd">
        <path d="M2,11.75 C1.58578644,11.75 1.25,11.4142136 1.25,11 C1.25,10.5857864 1.58578644,10.25 2,10.25 L20,10.25 C20.4142136,10.25 20.75,10.5857864 20.75,11 C20.75,11.4142136 20.4142136,11.75 20,11.75 L2,11.75 Z" id="直线-3" fill="#BBBBBB" fill-rule="nonzero"></path>
        <path d="M2,11.75 C1.58578644,11.75 1.25,11.4142136 1.25,11 C1.25,10.5857864 1.58578644,10.25 2,10.25 L20,10.25 C20.4142136,10.25 20.75,10.5857864 20.75,11 C20.75,11.4142136 20.4142136,11.75 20,11.75 L2,11.75 Z" id="直线-3" fill="#BBBBBB" fill-rule="nonzero" transform="translate(11.000000, 11.000000) rotate(90.000000) translate(-11.000000, -11.000000) "></path>
    </g>
</svg>