<?xml version="1.0" encoding="UTF-8"?>
<svg width="50px" height="50px" viewBox="0 0 50 50" version="1.1" xmlns="http://www.w3.org/2000/svg" xmlns:xlink="http://www.w3.org/1999/xlink">
    <!-- Generator: Sketch 52.6 (67491) - http://www.bohemiancoding.com/sketch -->
    <title>icon_zhong</title>
    <desc>Created with Sketch.</desc>
    <g id="icon_zhong" stroke="none" stroke-width="1" fill="none" fill-rule="evenodd">
        <g id="分组-4" transform="translate(25.000000, 25.000000) rotate(-45.000000) translate(-25.000000, -25.000000) translate(1.000000, 1.000000)" fill="#FBC6C6">
            <path d="M24,48.25 C10.6070948,48.25 -0.25,37.3929052 -0.25,24 C-0.25,10.6070948 10.6070948,-0.25 24,-0.25 C37.3929052,-0.25 48.25,10.6070948 48.25,24 C48.25,37.3929052 37.3929052,48.25 24,48.25 Z M24,47.75 C37.1167628,47.75 47.75,37.1167628 47.75,24 C47.75,10.8832372 37.1167628,0.25 24,0.25 C10.8832372,0.25 0.25,10.8832372 0.25,24 C0.25,37.1167628 10.8832372,47.75 24,47.75 Z" id="椭圆形" fill-rule="nonzero"></path>
            <path d="M24,46.25 C11.7116643,46.25 1.75,36.2883357 1.75,24 C1.75,11.7116643 11.7116643,1.75 24,1.75 C36.2883357,1.75 46.25,11.7116643 46.25,24 C46.25,36.2883357 36.2883357,46.25 24,46.25 Z M24,45.75 C36.0121933,45.75 45.75,36.0121933 45.75,24 C45.75,11.9878067 36.0121933,2.25 24,2.25 C11.9878067,2.25 2.25,11.9878067 2.25,24 C2.25,36.0121933 11.9878067,45.75 24,45.75 Z" id="椭圆形" fill-rule="nonzero"></path>
            <path d="M13.8674923,30.8864738 C13.7897806,30.7723487 13.8192995,30.6168342 13.9334246,30.5391225 C14.0475497,30.4614107 14.2030642,30.4909296 14.2807759,30.6050547 C16.4557941,33.7992215 20.062726,35.75 24,35.75 C27.9341361,35.75 31.5385542,33.8023508 33.7142317,30.6123804 C33.7920293,30.4983139 33.947566,30.4689121 34.0616326,30.5467097 C34.1756992,30.6245073 34.205101,30.7800439 34.1273033,30.8941105 C31.8594443,34.219237 28.1012117,36.25 24,36.25 C19.8955163,36.25 16.1346646,34.2159752 13.8674923,30.8864738 Z M34.7726114,18.1630853 C34.8384929,18.2844248 34.7935352,18.4361974 34.6721956,18.5020789 C34.5508561,18.5679603 34.3990835,18.5230027 34.333202,18.4016631 C32.2916193,14.641504 28.3566895,12.25 24,12.25 C19.6764297,12.25 15.766791,14.6050935 13.7113826,18.3203168 C13.6445433,18.4411313 13.4924197,18.4848868 13.3716052,18.4180475 C13.2507907,18.3512081 13.2070351,18.1990845 13.2738745,18.07827 C15.4164799,14.205435 19.4926934,11.75 24,11.75 C28.5418436,11.75 32.6444054,14.2433845 34.7726114,18.1630853 Z" id="形状" fill-rule="nonzero"></path>
            <polygon id="星形" fill-rule="nonzero" points="11 14.5 10.4122147 14.809017 10.5244717 14.1545085 10.0489435 13.690983 10.7061074 13.5954915 11 13 11.2938926 13.5954915 11.9510565 13.690983 11.4755283 14.1545085 11.5877853 14.809017"></polygon>
            <polygon id="星形-copy-4" fill-rule="nonzero" points="11 36.5 10.4122147 36.809017 10.5244717 36.1545085 10.0489435 35.690983 10.7061074 35.5954915 11 35 11.2938926 35.5954915 11.9510565 35.690983 11.4755283 36.1545085 11.5877853 36.809017"></polygon>
            <polygon id="星形-copy" fill-rule="nonzero" points="19 8.5 18.4122147 8.80901699 18.5244717 8.1545085 18.0489435 7.69098301 18.7061074 7.5954915 19 7 19.2938926 7.5954915 19.9510565 7.69098301 19.4755283 8.1545085 19.5877853 8.80901699"></polygon>
            <polygon id="星形-copy-5" fill-rule="nonzero" points="19 40.5 18.4122147 40.809017 18.5244717 40.1545085 18.0489435 39.690983 18.7061074 39.5954915 19 39 19.2938926 39.5954915 19.9510565 39.690983 19.4755283 40.1545085 19.5877853 40.809017"></polygon>
            <polygon id="星形-copy-2" fill-rule="nonzero" points="29 8.5 28.4122147 8.80901699 28.5244717 8.1545085 28.0489435 7.69098301 28.7061074 7.5954915 29 7 29.2938926 7.5954915 29.9510565 7.69098301 29.4755283 8.1545085 29.5877853 8.80901699"></polygon>
            <polygon id="星形-copy-6" fill-rule="nonzero" points="29 40.5 28.4122147 40.809017 28.5244717 40.1545085 28.0489435 39.690983 28.7061074 39.5954915 29 39 29.2938926 39.5954915 29.9510565 39.690983 29.4755283 40.1545085 29.5877853 40.809017"></polygon>
            <polygon id="星形-copy-3" fill-rule="nonzero" points="37 14.5 36.4122147 14.809017 36.5244717 14.1545085 36.0489435 13.690983 36.7061074 13.5954915 37 13 37.2938926 13.5954915 37.9510565 13.690983 37.4755283 14.1545085 37.5877853 14.809017"></polygon>
            <polygon id="星形-copy-7" fill-rule="nonzero" points="37 36.5 36.4122147 36.809017 36.5244717 36.1545085 36.0489435 35.690983 36.7061074 35.5954915 37 35 37.2938926 35.5954915 37.9510565 35.690983 37.4755283 36.1545085 37.5877853 36.809017"></polygon>
            <path d="M17.43,24.47 L11.26,24.47 L11.26,27.23 C11.26,27.6033352 11.4433315,27.79 11.81,27.79 L16.83,27.79 C17.0033342,27.79 17.1599993,27.7300006 17.3,27.61 C17.4533341,27.4633326 17.5566664,26.8633386 17.61,25.81 L18.54,26.11 C18.4199994,27.3633396 18.2566677,28.1099988 18.05,28.35 C17.8099988,28.5700011 17.490002,28.6899999 17.09,28.71 L11.54,28.71 C10.7133292,28.71 10.3,28.276671 10.3,27.41 L10.3,22.2 L11.26,22.2 L11.26,23.56 L16.47,23.56 L16.47,21.18 L9.84,21.18 L9.84,20.27 L17.43,20.27 L17.43,24.47 Z M23.51,19.76 L24.49,19.76 L24.49,21.49 L28.05,21.49 L28.05,26.32 L27.1,26.32 L27.1,25.75 L24.49,25.75 L24.49,29.1 L23.51,29.1 L23.51,25.75 L20.91,25.75 L20.91,26.32 L19.96,26.32 L19.96,21.49 L23.51,21.49 L23.51,19.76 Z M20.91,24.82 L23.51,24.82 L23.51,22.42 L20.91,22.42 L20.91,24.82 Z M24.49,24.82 L27.1,24.82 L27.1,22.42 L24.49,22.42 L24.49,24.82 Z M35.1,19.78 L36.03,19.78 L36.03,20.98 L37.9,20.98 L37.9,21.88 L36.03,21.88 L36.03,23.08 L38.27,23.08 L38.27,23.99 L36.7,23.99 L36.7,26.4 C36.7,26.5400007 36.7899991,26.61 36.97,26.61 L37.19,26.61 C37.323334,26.61 37.4333329,26.5800003 37.52,26.52 C37.6200005,26.453333 37.6899998,26.1066698 37.73,25.48 L38.55,25.75 C38.4499995,26.5966709 38.3300007,27.0899993 38.19,27.23 C38.0233325,27.3766674 37.7500019,27.45 37.37,27.45 L36.67,27.45 C36.3833319,27.45 36.1700007,27.3700008 36.03,27.21 C35.8833326,27.0566659 35.81,26.8566679 35.81,26.61 L35.81,23.99 L35.01,23.99 C34.9699998,24.6166698 34.8700008,25.1666643 34.71,25.64 C34.4499987,26.3933371 33.853338,27.0166642 32.92,27.51 L32.31,26.77 C33.0833372,26.3899981 33.5966654,25.9133362 33.85,25.34 C33.9900007,24.9799982 34.0799998,24.5300027 34.12,23.99 L32.68,23.99 L32.68,23.08 L35.1,23.08 L35.1,21.88 L33.67,21.88 C33.469999,22.2533352 33.2866675,22.573332 33.12,22.84 L32.32,22.33 C32.8333359,21.5833296 33.1999989,20.7866709 33.42,19.94 L34.32,20.12 C34.2466663,20.3933347 34.1566672,20.6799985 34.05,20.98 L35.1,20.98 L35.1,19.78 Z M30.35,19.9 C30.9900032,20.4133359 31.543331,20.9399973 32.01,21.48 L31.34,22.14 C30.9666648,21.6466642 30.4200036,21.1066696 29.7,20.52 L30.35,19.9 Z M36.1,28.86 C35.7599983,28.86 35.1633376,28.8533334 34.31,28.84 C33.6766635,28.8333333 33.1433355,28.7766672 32.71,28.67 C32.3166647,28.5499994 31.9666682,28.3166684 31.66,27.97 C31.5199993,27.8033325 31.3933339,27.72 31.28,27.72 C31.0733323,27.72 30.7133359,28.1699955 30.2,29.07 L29.5,28.42 C30.0000025,27.6066626 30.449998,27.100001 30.85,26.9 L30.85,24.07 L29.51,24.07 L29.51,23.19 L31.74,23.19 L31.74,26.97 C31.7933336,27.0100002 31.8433331,27.0599997 31.89,27.12 C32.1233345,27.386668 32.3633321,27.586666 32.61,27.72 C32.9233349,27.8666674 33.3666638,27.9499999 33.94,27.97 C34.7000038,27.9833334 35.3733304,27.99 35.96,27.99 C36.2866683,27.99 36.78333,27.9833334 37.45,27.97 C37.8900022,27.9633333 38.276665,27.9466668 38.61,27.92 L38.38,28.86 L36.1,28.86 Z" id="已中选"></path>
        </g>
    </g>
</svg>